<svg xmlns="http://www.w3.org/2000/svg"  viewBox="0 0 50 50" width="50px" height="50px"><path d="M 25 2.8125 L 24.464844 3.15625 L 3 16.796875 L 3 33.203125 L 25 47.1875 L 47 33.203125 L 47 16.796875 Z M 25 5.1875 L 45 17.894531 L 45 32.105469 L 25 44.8125 L 5 32.105469 L 5 17.894531 Z M 24 8.128906 L 7.761719 18.449219 L 15.582031 23.871094 L 24 18.136719 Z M 26 8.128906 L 26 18.136719 L 26.4375 18.433594 L 34.417969 23.871094 L 42.238281 18.449219 Z M 22 11.769531 L 22 17.078125 L 15.59375 21.445313 L 11.375 18.519531 Z M 28 11.769531 L 38.625 18.519531 L 34.40625 21.441406 L 28 17.078125 Z M 25 19.8125 L 17.300781 25.0625 L 25 30.398438 L 25.570313 30.003906 L 32.699219 25.0625 Z M 7 20.292969 L 7 29.722656 L 13.859375 25.046875 L 12.660156 24.21875 Z M 43 20.296875 L 36.140625 25.046875 L 37.34375 25.871094 L 43 29.722656 Z M 25 22.234375 L 29.167969 25.078125 L 25 27.964844 L 20.832031 25.078125 Z M 9 24.113281 L 10.328125 25.035156 L 9 25.9375 Z M 41 24.113281 L 41 25.9375 L 39.671875 25.035156 Z M 15.574219 26.238281 L 15.003906 26.625 L 7.773438 31.558594 L 24 41.871094 L 24 32.078125 Z M 34.425781 26.238281 L 26 32.078125 L 26 41.871094 L 42.226563 31.558594 Z M 15.5625 28.667969 L 22 33.125 L 22 38.230469 L 11.40625 31.5 Z M 34.4375 28.667969 L 38.59375 31.5 L 28 38.230469 L 28 33.125 Z"/></svg>