<svg xmlns="http://www.w3.org/2000/svg" version="1.1" xmlns:xlink="http://www.w3.org/1999/xlink" xmlns:svgjs="http://svgjs.dev/svgjs" width="2000" height="1448" viewBox="0 0 2000 1448"><g transform="matrix(1,0,0,1,-0.9106464723134877,0.5862499427231569)"><svg viewBox="0 0 341 247" data-background-color="#ffffff" preserveAspectRatio="xMidYMid meet" height="1448" width="2000" xmlns="http://www.w3.org/2000/svg" xmlns:xlink="http://www.w3.org/1999/xlink"><g id="tight-bounds" transform="matrix(1,0,0,1,0.1552652235294545,-0.09999741999129697)"><svg viewBox="0 0 340.6894695529411 247.2" height="247.2" width="340.6894695529411"><g><svg viewBox="0 0 340.6894695529411 247.2" height="247.2" width="340.6894695529411"><g><svg viewBox="0 0 174.4941176470588 247.2" height="247.2" width="174.4941176470588"><g id="textblocktransform"><svg viewBox="0 0 174.4941176470588 247.2" height="247.2" width="174.4941176470588" id="textblock"><g><svg viewBox="0 0 174.4941176470588 247.2" height="247.2" width="174.4941176470588"><g transform="matrix(1,0,0,1,0,0)"><svg width="174.4941176470588" viewBox="3.799999952316284 -36.54999923706055 25.80000114440918 36.54999923706055" height="247.2" data-palette-color="#3f9e3e"><path d="M5.45 0L5.45 0Q4.8 0 4.3-0.33 3.8-0.65 3.8-1.3L3.8-1.3 3.8-34.95Q3.8-35.85 4.3-36.2 4.8-36.55 5.45-36.55L5.45-36.55Q6.05-36.55 6.53-36.23 7-35.9 7.4-35.38 7.8-34.85 8.1-34.25L8.1-34.25 16.7-17.65 25.3-34.25Q25.65-34.85 26.03-35.38 26.4-35.9 26.9-36.23 27.4-36.55 27.95-36.55L27.95-36.55Q28.65-36.55 29.13-36.2 29.6-35.85 29.6-34.95L29.6-34.95 29.6-1.3Q29.6-0.65 29.1-0.33 28.6 0 27.95 0L27.95 0Q27.35 0 26.83-0.33 26.3-0.65 26.3-1.3L26.3-1.3 26.3-29.4 18-13.7Q17.7-13.15 17.35-12.9 17-12.65 16.65-12.65L16.65-12.65Q16.35-12.65 16-12.88 15.65-13.1 15.35-13.7L15.35-13.7 7.1-29.55 7.1-1.3Q7.1-0.65 6.58-0.33 6.05 0 5.45 0Z" opacity="1" transform="matrix(1,0,0,1,0,0)" fill="#3f9e3e" class="undefined-text-0" data-fill-palette-color="primary" id="text-0"></path></svg></g></svg></g></svg></g></svg></g><g transform="matrix(1,0,0,1,232.8521048470588,69.68131764705882)"><svg viewBox="0 0 107.83736470588234 107.83736470588234" height="107.83736470588234" width="107.83736470588234"><g data-palette-color="#2981e6"><rect width="29.475546352941176" height="107.83736470588234" fill="#2981e6" stroke="transparent" data-fill-palette-color="accent" x="0" fill-opacity="1"></rect><rect width="29.475546352941176" height="107.83736470588234" fill="#2981e6" stroke="transparent" data-fill-palette-color="accent" x="35.94578823529412" fill-opacity="0.75"></rect><rect width="29.475546352941176" height="107.83736470588234" fill="#2981e6" stroke="transparent" data-fill-palette-color="accent" x="71.89157647058823" fill-opacity="0.5"></rect></g></svg></g></svg></g><defs></defs></svg><rect width="340.6894695529411" height="247.2" fill="none" stroke="none" visibility="hidden"></rect></g></svg></g></svg>